<svg 
 xmlns="http://www.w3.org/2000/svg"
 xmlns:xlink="http://www.w3.org/1999/xlink"
 width="767px" height="635px">
<defs>
<linearGradient id="PSgrad_0" x1="0%" x2="22.495%" y1="97.437%" y2="0%">
  <stop offset="0%" stop-color="rgb(255,143,90)" stop-opacity="1" />
  <stop offset="99%" stop-color="rgb(255,47,150)" stop-opacity="1" />
</linearGradient>

</defs>
<path fill-rule="evenodd"  fill="rgb(96, 85, 196)"
 d="M329.267,33.652 C418.217,-8.388 502.161,-8.518 572.343,23.040 C642.706,54.342 699.307,117.332 737.753,195.613 C774.644,274.672 774.605,359.590 744.476,428.283 C713.929,498.001 663.087,550.563 593.805,588.075 C557.113,606.964 518.545,619.903 469.515,627.846 C421.131,635.673 362.285,638.503 299.937,634.466 C176.209,626.699 37.541,590.237 8.298,507.991 C-8.274,467.152 2.129,420.338 22.732,373.226 C43.674,326.046 74.817,278.569 107.516,234.815 C140.552,190.994 175.144,150.896 210.758,116.890 C246.709,82.815 283.681,54.833 329.267,33.652 L329.267,33.652 Z"/>
<path fill="url(#PSgrad_0)"
 d="M329.267,33.652 C418.217,-8.388 502.161,-8.518 572.343,23.040 C642.706,54.342 699.307,117.332 737.753,195.613 C774.644,274.672 774.605,359.590 744.476,428.283 C713.929,498.001 663.087,550.563 593.805,588.075 C557.113,606.964 518.545,619.903 469.515,627.846 C421.131,635.673 362.285,638.503 299.937,634.466 C176.209,626.699 37.541,590.237 8.298,507.991 C-8.274,467.152 2.129,420.338 22.732,373.226 C43.674,326.046 74.817,278.569 107.516,234.815 C140.552,190.994 175.144,150.896 210.758,116.890 C246.709,82.815 283.681,54.833 329.267,33.652 L329.267,33.652 Z"/>
</svg>