<svg 
 xmlns="http://www.w3.org/2000/svg"
 xmlns:xlink="http://www.w3.org/1999/xlink"
 width="470px" height="391px">
<defs>
<linearGradient id="PSgrad_0" x1="0%" x2="22.495%" y1="97.437%" y2="0%">
  <stop offset="0%" stop-color="rgb(255,143,90)" stop-opacity="1" />
  <stop offset="99%" stop-color="rgb(255,47,150)" stop-opacity="1" />
</linearGradient>

</defs>
<path fill-rule="evenodd"  fill="rgb(96, 85, 196)"
 d="M201.920,21.253 C256.483,-4.540 307.974,-4.620 351.023,14.742 C394.183,33.947 428.902,72.593 452.485,120.621 C475.114,169.126 475.090,221.226 456.609,263.372 C437.871,306.146 406.685,338.394 364.188,361.409 C341.681,372.998 318.023,380.937 287.948,385.810 C258.270,390.612 222.173,392.348 183.930,389.871 C108.035,385.106 22.977,362.735 5.039,312.275 C-5.126,287.219 1.255,258.497 13.893,229.592 C26.738,200.646 45.842,171.517 65.899,144.673 C86.163,117.787 107.382,93.186 129.227,72.322 C151.279,51.416 173.958,34.248 201.920,21.253 L201.920,21.253 Z"/>
<path fill="url(#PSgrad_0)"
 d="M201.920,21.253 C256.483,-4.540 307.974,-4.620 351.023,14.742 C394.183,33.947 428.902,72.593 452.485,120.621 C475.114,169.126 475.090,221.226 456.609,263.372 C437.871,306.146 406.685,338.394 364.188,361.409 C341.681,372.998 318.023,380.937 287.948,385.810 C258.270,390.612 222.173,392.348 183.930,389.871 C108.035,385.106 22.977,362.735 5.039,312.275 C-5.126,287.219 1.255,258.497 13.893,229.592 C26.738,200.646 45.842,171.517 65.899,144.673 C86.163,117.787 107.382,93.186 129.227,72.322 C151.279,51.416 173.958,34.248 201.920,21.253 L201.920,21.253 Z"/>
</svg>